<?xml version="1.0" encoding="UTF-8"?>
<svg xmlns="http://www.w3.org/2000/svg" viewBox="0 0 280 40" role="img" aria-label="MyCalcsWorld">
  <defs>
    <linearGradient id="g" x1="0" y1="0" x2="0" y2="1">
      <stop offset="0%" stop-color="#8b5cf6"/>
      <stop offset="100%" stop-color="#4c1d95"/>
    </linearGradient>
  </defs>
  <rect x="0" y="0" width="40" height="40" rx="10" fill="url(#g)"/>
  <g fill="#fff" transform="translate(8,7)">
    <rect x="2" y="0" width="20" height="26" rx="3" fill="none" stroke="#fff" stroke-width="2"/>
    <rect x="5" y="3" width="14" height="5" rx="1"/>
    <rect x="5" y="11" width="3.5" height="3.5" rx="0.5"/>
    <rect x="10.75" y="11" width="3.5" height="3.5" rx="0.5"/>
    <rect x="16.5" y="11" width="3.5" height="3.5" rx="0.5"/>
    <rect x="5" y="16.5" width="3.5" height="3.5" rx="0.5"/>
    <rect x="10.75" y="16.5" width="3.5" height="3.5" rx="0.5"/>
    <rect x="16.5" y="16.5" width="3.5" height="3.5" rx="0.5"/>
    <ellipse cx="12" cy="13" rx="14" ry="7" fill="none" stroke="#fff" stroke-width="1.5" transform="rotate(-25 12 13)" opacity="0.9"/>
    <circle cx="24" cy="9" r="1.6"/>
    <circle cx="2" cy="18" r="1.6"/>
  </g>
  <text x="52" y="27" font-family="system-ui,Segoe UI,sans-serif" font-size="20" font-weight="700" fill="#0f766e">MyCalcs<tspan fill="#0b1220">World</tspan></text>
</svg>